<?xml version="1.0" encoding="UTF-8" standalone="no"?>
<!DOCTYPE svg PUBLIC "-//W3C//DTD SVG 1.1//EN" "http://www.w3.org/Graphics/SVG/1.1/DTD/svg11.dtd">
<svg width="100%" height="100%" viewBox="0 0 150 194" version="1.1" xmlns="http://www.w3.org/2000/svg" xmlns:xlink="http://www.w3.org/1999/xlink" xml:space="preserve" style="fill-rule:evenodd;clip-rule:evenodd;">
    <g transform="matrix(0.821468,0,0,0.821468,1.02683,0.24644)">
        <path d="M83.2,40.2L70.55,39C61.983,37.933 57.433,36.817 56.9,35.65C56.467,34.75 56.4,32.85 56.7,29.95C56.967,27.083 57.383,25.383 57.95,24.85C58.883,23.95 62.967,25.167 70.2,28.5C73.8,30.167 77.317,31.917 80.75,33.75L70.2,21.65C63.167,13.35 59.633,8.65 59.6,7.55C59.567,6.25 60.517,4.783 62.45,3.15C64.383,1.517 66.033,0.7 67.4,0.7C69,0.7 72.017,4 76.45,10.6C81.183,17.667 84.883,24.783 87.55,31.95L86.15,17.1C85.317,7.067 85.167,1.7 85.7,1C86.367,0.133 87.817,-0.167 90.05,0.1C92.183,0.333 93.633,0.867 94.4,1.7C94.967,2.3 94.967,8.65 94.4,20.75L93.35,38.7L83.2,40.2" style="fill:rgb(13,19,26);fill-rule:nonzero;"/>
        <path d="M144.8,234.75C142.733,235.183 139.633,234.117 135.5,231.55L129.95,227.55L121.9,231.3C116.2,233.633 112.483,234.483 110.75,233.85C109.75,233.483 109.333,231.4 109.5,227.6C109.667,224.067 110.217,220.7 111.15,217.5L148.4,204.85C153.567,207.817 158.517,212.033 163.25,217.5C168.217,223.267 169.917,227.133 168.35,229.1C167.383,230.333 163.983,229.917 158.15,227.85L149.7,224.35L148.5,229.3C147.433,232.667 146.2,234.483 144.8,234.75" style="fill:rgb(13,19,26);fill-rule:nonzero;"/>
        <path d="M149.2,219.45L147.8,225.9C146.767,229.567 145.633,231.583 144.4,231.95C143.3,232.283 141.083,231.55 137.75,229.75C133.817,227.617 130.75,224.933 128.55,221.7C128.083,221 127.717,220.75 127.45,220.95C127.217,221.15 127.267,221.7 127.6,222.6L128.7,225.4C126.467,226.833 123.767,228.2 120.6,229.5C116.933,231 114.517,231.517 113.35,231.05C112.45,230.717 112.1,228.7 112.3,225C112.5,221.533 113.017,218.35 113.85,215.45L145,205.7C149.533,207.667 154.383,211.483 159.55,217.15C164.483,222.583 166.467,225.867 165.5,227C165.067,227.467 162.95,227.017 159.15,225.65C155.317,224.283 152.3,222.9 150.1,221.5L150.15,219.9C150.15,219.167 150.05,218.7 149.85,218.5C149.617,218.267 149.4,218.583 149.2,219.45" style="fill:rgb(255,241,172);fill-rule:nonzero;"/>
        <path d="M132.55,218.15C129.217,219.183 124.883,220.2 119.55,221.2L112.5,222.4L112.95,217.85L146.2,205.65L150.65,209.15L144.25,212.85C139.383,215.483 135.483,217.25 132.55,218.15" style="fill:rgb(220,208,150);fill-rule:nonzero;"/>
        <path d="M82.15,216.3C84.717,220.7 86.517,224.167 87.55,226.7C89.217,230.733 89.367,233.083 88,233.75C86.3,234.55 82.533,233.617 76.7,230.95L68.45,226.7L63.4,231C59.7,233.867 57.033,235.233 55.4,235.1C53.833,234.967 52.367,233.45 51,230.55L49.45,226.25L39,228.5L26.9,228.85C25.533,227.283 27.95,223.6 34.15,217.8C40.25,212.167 45.85,208.233 50.95,206L82.15,216.3" style="fill:rgb(13,19,26);fill-rule:nonzero;"/>
        <path d="M84.25,224.45C85.883,228.383 86.3,230.6 85.5,231.1C84.7,231.6 82.4,231 78.6,229.3C74.8,227.633 71.967,225.983 70.1,224.35L70.7,222.45C70.867,221.717 70.783,221.317 70.45,221.25C70.117,221.183 69.783,221.433 69.45,222C68.25,223.933 65.933,226.133 62.5,228.6C59.067,231.1 56.7,232.25 55.4,232.05C53.133,231.717 51.367,228.367 50.1,222C49.967,221.333 49.783,221.033 49.55,221.1C49.35,221.167 49.217,221.583 49.15,222.35L49.25,223.6C46.083,224.7 42.2,225.6 37.6,226.3L30.35,226.6C29.85,225.633 32.167,222.767 37.3,218C43.067,212.6 48.883,208.717 54.75,206.35L79.05,214.45C81.05,217.55 82.783,220.883 84.25,224.45" style="fill:rgb(255,241,172);fill-rule:nonzero;"/>
        <path d="M62.4,216.9C59.5,215.867 56.35,214.3 52.95,212.2L48.7,209.3L52.4,207.25L80.45,216.3L83,221.55L76.4,220.5C71.167,219.533 66.5,218.333 62.4,216.9" style="fill:rgb(220,208,150);fill-rule:nonzero;"/>
        <path d="M12.15,187.2C7.65,183.333 4.3,179.6 2.1,176C-0.133,172.433 -0.617,170.017 0.65,168.75C2.717,166.65 6.817,167.233 12.95,170.5C16.683,172.5 19.15,173.733 20.35,174.2C23.15,175.333 25.483,175.717 27.35,175.35L28.2,179.25C29.233,182.583 30.933,186.033 33.3,189.6C35.667,193.167 38.783,196.583 42.65,199.85C44.583,201.483 46.283,202.75 47.75,203.65C35.45,202.583 23.583,197.1 12.15,187.2" style="fill:rgb(13,19,26);fill-rule:nonzero;"/>
        <path d="M15.45,186.3C11.017,182.733 7.517,179.367 4.95,176.2C2.417,173 1.567,170.933 2.4,170C3.2,169.067 4.65,169 6.75,169.8C7.85,170.233 10.167,171.433 13.7,173.4C21.1,177.533 26.8,179.35 30.8,178.85L46.35,201.4C37.017,200.367 26.717,195.333 15.45,186.3" style="fill:rgb(50,108,229);fill-rule:nonzero;"/>
        <path d="M23.45,192.25C15.75,187.417 10.133,182.7 6.6,178.1C15.433,186 23.883,191.05 31.95,193.25C35.95,194.35 39.083,194.667 41.35,194.2L46.35,201.4C39.683,200.667 32.05,197.617 23.45,192.25" style="fill:rgb(26,70,162);fill-rule:nonzero;"/>
        <path d="M167.6,64.25C173.067,70.783 176.667,77.9 178.4,85.6C180.367,94.367 179.75,103.683 176.55,113.55C173.25,123.65 168.133,131.483 161.2,137.05L135.1,105.3C137.1,102.967 138.95,99.95 140.65,96.25C144.017,88.883 144.967,81.8 143.5,75C142.167,68.933 139.833,62.817 136.5,56.65C134.033,52.15 133.033,49.667 133.5,49.2C134.133,48.567 135.15,48.35 136.55,48.55L138.45,49.1L137.85,47.55C137.617,46.417 137.9,45.55 138.7,44.95L143.3,44.85L146.5,45.8C146.6,45.133 146.8,44.467 147.1,43.8C147.667,42.467 148.4,41.767 149.3,41.7C150.867,41.567 152.45,42.8 154.05,45.4L158.75,54.6C159.317,55.7 162.267,58.917 167.6,64.25" style="fill:rgb(13,19,26);fill-rule:nonzero;"/>
        <path d="M165.35,65.35C171.217,72.817 174.633,80.183 175.6,87.45C176.933,97.083 176.35,105.817 173.85,113.65C171.283,121.75 166.733,128.717 160.2,134.55L138.15,107.45C140.117,104.717 141.95,101.383 143.65,97.45C147.05,89.55 148.083,82.533 146.75,76.4C145.483,70.633 143.317,64.85 140.25,59.05C137.817,54.45 136.65,52.083 136.75,51.95C137.183,51.383 138.033,51.267 139.3,51.6C139.933,51.767 140.533,52 141.1,52.3C140.767,51.6 140.517,50.833 140.35,50C139.983,48.367 140.167,47.283 140.9,46.75C141.6,46.217 143.017,46.35 145.15,47.15L148.1,48.45L148.15,46.45C148.317,45.117 148.633,44.35 149.1,44.15C149.9,43.85 151.05,44.933 152.55,47.4C153.783,49.467 155.067,52.117 156.4,55.35L159.3,58.5C161.667,60.933 163.683,63.217 165.35,65.35" style="fill:rgb(50,108,229);fill-rule:nonzero;"/>
        <path d="M171.65,169.35C171.517,184.217 164.317,196.3 150.05,205.6C136.183,214.7 118.833,219.133 98,218.9C76.9,218.667 59.367,213.617 45.4,203.75C31.5,193.983 24.617,181.933 24.75,167.6C24.817,159.967 26.8,151.517 30.7,142.25C34.633,132.85 39.9,124.1 46.5,116C53.633,107.267 61.45,100.433 69.95,95.5C79.417,90 89.017,87.3 98.75,87.4C108.617,87.5 118.283,90.55 127.75,96.55C136.183,101.85 143.917,109.083 150.95,118.25C157.35,126.583 162.45,135.5 166.25,145C169.917,154.233 171.717,162.35 171.65,169.35" style="fill:rgb(13,19,26);fill-rule:nonzero;"/>
        <path d="M168.7,168.7C168.567,182.867 161.667,194.483 148,203.55C134.6,212.45 118.017,216.783 98.25,216.55C78.45,216.35 61.8,211.65 48.3,202.45C34.467,193.05 27.617,181.283 27.75,167.15C27.817,159.917 29.75,151.883 33.55,143.05C37.35,134.15 42.467,125.833 48.9,118.1C55.8,109.833 63.333,103.35 71.5,98.65C80.567,93.417 89.733,90.85 99,90.95C108.267,91.05 117.383,93.817 126.35,99.25C134.417,104.117 141.817,110.767 148.55,119.2C154.817,127.067 159.767,135.5 163.4,144.5C167,153.4 168.767,161.467 168.7,168.7" style="fill:rgb(50,108,229);fill-rule:nonzero;"/>
        <path d="M105.7,92.15L109.75,92.3C118.45,94.367 126.85,98.717 134.95,105.35C142.283,111.35 148.783,118.7 154.45,127.4L154.5,129C154.5,139.167 149.733,147.85 140.2,155.05C130.667,162.25 119.167,165.85 105.7,165.85C92.233,165.85 80.733,162.25 71.2,155.05C61.7,147.85 56.95,139.167 56.95,129C56.95,118.833 61.7,110.15 71.2,102.95C80.733,95.75 92.233,92.15 105.7,92.15" style="fill:rgb(26,70,162);fill-rule:nonzero;"/>
        <path d="M90.7,210C103.7,211.3 116.583,210.55 129.35,207.75C141.483,205.117 150.65,201.317 156.85,196.35C150.517,202.883 142.233,207.933 132,211.5C121.667,215.133 110.4,216.867 98.2,216.7C78.367,216.5 61.717,211.817 48.25,202.65C34.417,193.217 27.567,181.433 27.7,167.3C32.333,180.433 40.7,190.717 52.8,198.15C63.333,204.583 75.967,208.533 90.7,210" style="fill:rgb(26,70,162);fill-rule:nonzero;"/>
        <path d="M90.55,35.5C109.717,34.433 126.033,38.317 139.5,47.15C152.233,55.55 159.167,66.033 160.3,78.6C161.5,91.833 156.283,103.167 144.65,112.6C133.083,122 117.95,127.233 99.25,128.3C80.417,129.333 64.333,125.967 51,118.2C37.533,110.3 30.2,99.767 29,86.6C27.8,73.3 33.1,61.717 44.9,51.85C56.733,41.983 71.95,36.533 90.55,35.5" style="fill:rgb(13,19,26);fill-rule:nonzero;"/>
        <path d="M90.85,37.6C108.217,36.633 123.45,40.183 136.55,48.25C149.617,56.317 156.717,66.533 157.85,78.9C158.95,91.267 153.75,102.15 142.25,111.55C130.75,120.983 116.317,126.183 98.95,127.15C81.55,128.117 66.317,124.567 53.25,116.5C40.15,108.433 33.05,98.217 31.95,85.85C30.817,73.483 36.017,62.6 47.55,53.2C59.05,43.767 73.483,38.567 90.85,37.6" style="fill:rgb(50,108,229);fill-rule:nonzero;"/>
        <g transform="matrix(0.202911,0,0,0.202911,25.2074,51.4971)">
            <g id="g3052">
                <path id="path3059" d="M367.734,274.06C359.657,274.06 353.108,281.336 353.109,290.31C353.109,290.447 353.137,290.579 353.14,290.716C353.128,291.935 353.069,293.404 353.109,294.466C353.301,299.642 354.43,303.603 355.109,308.372C356.339,318.579 357.37,327.039 356.734,334.903C356.115,337.869 353.931,340.581 351.984,342.466L351.64,348.653C342.863,349.381 334.028,350.712 325.202,352.716C287.228,361.338 254.532,380.899 229.64,407.31C228.025,406.208 225.199,404.18 224.359,403.56C221.747,403.912 219.108,404.718 215.671,402.716C209.126,398.31 203.165,392.229 195.952,384.903C192.647,381.399 190.254,378.062 186.327,374.685C185.436,373.918 184.075,372.88 183.077,372.091C180.007,369.643 176.387,368.367 172.89,368.247C168.394,368.093 164.066,369.851 161.234,373.403C156.198,379.719 157.81,389.371 164.827,394.966C164.899,395.023 164.974,395.067 165.046,395.122C166.01,395.904 167.191,396.905 168.077,397.56C172.244,400.636 176.051,402.211 180.202,404.653C188.949,410.055 196.201,414.534 201.952,419.935C204.198,422.329 204.591,426.548 204.89,428.372L209.577,432.56C184.484,470.323 172.871,516.969 179.734,564.497L173.609,566.278C171.994,568.363 169.713,571.643 167.327,572.622C159.802,574.992 151.333,575.863 141.109,576.935C136.308,577.334 132.166,577.096 127.077,578.06C125.957,578.272 124.397,578.678 123.171,578.966C123.129,578.975 123.089,578.987 123.046,578.997C122.979,579.013 122.892,579.045 122.827,579.06C114.207,581.142 108.67,589.066 110.452,596.872C112.236,604.68 120.656,609.429 129.327,607.56C129.39,607.545 129.481,607.543 129.546,607.528C129.644,607.506 129.73,607.458 129.827,607.435C131.036,607.169 132.551,606.874 133.609,606.591C138.612,605.251 142.236,603.283 146.734,601.56C156.411,598.089 164.425,595.189 172.234,594.06C175.495,593.804 178.931,596.072 180.64,597.028L187.015,595.935C201.685,641.417 232.429,678.18 271.359,701.247L268.702,707.622C269.66,710.098 270.716,713.447 270.003,715.891C267.164,723.253 262.302,731.022 256.765,739.685C254.084,743.687 251.34,746.792 248.921,751.372C248.342,752.468 247.605,754.151 247.046,755.31C243.287,763.352 246.044,772.615 253.265,776.091C260.531,779.589 269.549,775.9 273.452,767.841C273.458,767.83 273.478,767.821 273.484,767.81C273.488,767.801 273.48,767.787 273.484,767.779C274.039,766.636 274.827,765.134 275.296,764.06C277.368,759.313 278.058,755.245 279.515,750.654C283.384,740.933 285.51,730.734 290.837,724.379C292.296,722.639 294.674,721.97 297.14,721.31L300.452,715.31C334.391,728.337 372.379,731.832 410.327,723.216C418.984,721.25 427.342,718.707 435.421,715.654C436.352,717.305 438.082,720.479 438.546,721.279C441.052,722.094 443.787,722.515 446.015,725.81C450,732.619 452.726,740.674 456.046,750.404C457.503,754.995 458.224,759.063 460.296,763.81C460.768,764.892 461.552,766.415 462.109,767.56C466.003,775.645 475.051,779.346 482.327,775.841C489.547,772.363 492.307,763.101 488.546,755.06C487.987,753.902 487.219,752.218 486.64,751.122C484.22,746.543 481.477,743.468 478.796,739.466C473.259,730.804 468.666,723.608 465.827,716.247C464.64,712.451 466.028,710.09 466.952,707.622C466.399,706.987 465.214,703.402 464.515,701.716C504.972,677.828 534.813,639.695 548.827,595.654C550.72,595.951 554.009,596.533 555.077,596.747C557.277,595.297 559.299,593.404 563.265,593.716C571.073,594.845 579.088,597.746 588.765,601.216C593.263,602.939 596.886,604.939 601.89,606.279C602.947,606.562 604.462,606.826 605.671,607.091C605.768,607.115 605.854,607.162 605.952,607.185C606.018,607.199 606.108,607.202 606.171,607.216C614.843,609.083 623.265,604.337 625.046,596.528C626.827,588.721 621.292,580.796 612.671,578.716C611.417,578.431 609.639,577.947 608.421,577.716C603.332,576.752 599.19,576.99 594.39,576.591C584.165,575.52 575.696,574.648 568.171,572.278C565.103,571.088 562.92,567.437 561.859,565.935L555.952,564.216C559.015,542.062 558.189,519.005 552.89,495.935C547.541,472.65 538.089,451.354 525.484,432.591C526.999,431.214 529.86,428.68 530.671,427.935C530.908,425.311 530.704,422.559 533.421,419.653C539.172,414.253 546.424,409.774 555.171,404.372C559.323,401.93 563.161,400.355 567.327,397.278C568.27,396.583 569.556,395.481 570.546,394.685C577.561,389.088 579.177,379.436 574.14,373.122C569.103,366.808 559.343,366.213 552.327,371.81C551.329,372.601 549.974,373.632 549.077,374.403C545.151,377.781 542.726,381.118 539.421,384.622C532.209,391.948 526.247,398.06 519.702,402.466C516.866,404.117 512.712,403.546 510.827,403.435L505.265,407.403C473.546,374.143 430.36,352.878 383.859,348.747C383.729,346.798 383.558,343.276 383.515,342.216C381.611,340.394 379.311,338.839 378.734,334.903C378.097,327.039 379.16,318.579 380.39,308.372C381.069,303.603 382.197,299.642 382.39,294.466C382.434,293.289 382.363,291.582 382.359,290.31C382.358,281.336 375.811,274.059 367.734,274.06L367.734,274.06ZM349.421,387.497L345.077,464.216L344.765,464.372C344.474,471.235 338.825,476.716 331.89,476.716C329.049,476.716 326.427,475.804 324.296,474.247L324.171,474.31L261.265,429.716C280.599,410.705 305.328,396.655 333.827,390.185C339.033,389.003 344.237,388.126 349.421,387.497ZM386.077,387.497C419.351,391.589 450.122,406.656 473.702,429.747L411.202,474.06L410.984,473.966C405.436,478.018 397.62,477.012 393.296,471.591C391.525,469.37 390.595,466.759 390.484,464.122L390.421,464.091L386.077,387.497ZM238.452,458.372L295.89,509.747L295.827,510.06C301.012,514.567 301.776,522.388 297.452,527.81C295.681,530.031 293.31,531.52 290.765,532.216L290.702,532.466L217.077,553.716C213.33,519.451 221.406,486.142 238.452,458.372ZM496.609,458.403C505.143,472.236 511.605,487.685 515.452,504.435C519.253,520.983 520.207,537.502 518.64,553.466L444.64,532.153L444.577,531.841C437.951,530.03 433.878,523.289 435.421,516.528C436.053,513.759 437.523,511.416 439.515,509.685L439.484,509.528L496.609,458.403L496.609,458.403ZM355.952,513.716L379.484,513.716L394.109,531.997L388.859,554.81L367.734,564.966L346.546,554.778L341.296,531.966L355.952,513.716ZM431.39,576.278C432.39,576.228 433.385,576.318 434.359,576.497L434.484,576.341L510.64,589.216C499.494,620.529 478.167,647.656 449.671,665.81L420.109,594.403L420.202,594.278C417.487,587.968 420.204,580.569 426.452,577.56C428.052,576.789 429.723,576.363 431.39,576.278L431.39,576.278ZM303.484,576.591C309.295,576.672 314.508,580.706 315.859,586.622C316.491,589.392 316.183,592.136 315.14,594.56L315.359,594.841L286.109,665.528C258.762,647.98 236.979,621.704 225.327,589.466L300.827,576.653L300.952,576.81C301.797,576.654 302.653,576.579 303.484,576.591L303.484,576.591ZM367.265,607.56C369.289,607.485 371.344,607.901 373.296,608.841C375.856,610.073 377.833,612.014 379.077,614.341L379.359,614.341L416.577,681.591C411.747,683.21 406.781,684.594 401.702,685.747C373.238,692.21 344.864,690.252 319.171,681.497L356.296,614.372L356.359,614.372C358.586,610.208 362.811,607.723 367.265,607.56Z" style="fill:white;fill-rule:nonzero;stroke:white;stroke-width:0.25px;"/>
            </g>
        </g>
        <path d="M40.45,63.6L40.5,65.8L42,65C43.167,64.533 44.15,64.533 44.95,65C45.75,65.433 45.85,67.217 45.25,70.35C44.383,74.85 43.983,78.183 44.05,80.35C44.217,85.417 44.75,91.65 45.65,99.05C46.35,104.883 47.133,110.25 48,115.15C49.6,124.55 49.7,132.433 48.3,138.8C47.267,143.667 45.417,147.4 42.75,150L38.3,152.9L33.55,154.95C29.25,156.117 25.417,155.817 22.05,154.05C16.45,151.083 12.7,146.083 10.8,139.05C9.067,132.617 8.733,123.817 9.8,112.65C10.567,104.383 12.9,96.05 16.8,87.65C20.6,80.65 22.567,76.717 22.7,75.85C23.533,70.85 24.183,67.433 24.65,65.6C25.45,62.533 26.617,60.85 28.15,60.55C29.05,60.35 29.95,60.95 30.85,62.35L31.95,64.45C32.717,63.717 33.567,63 34.5,62.3C36.4,60.933 37.8,60.417 38.7,60.75C39.633,61.083 40.217,62.033 40.45,63.6" style="fill:rgb(13,19,26);fill-rule:nonzero;"/>
        <path d="M31.15,67.2L33.65,65.15C35.45,63.817 36.767,63.3 37.6,63.6C38.433,63.9 38.9,64.9 39,66.6L38.9,69C39.367,68.567 39.883,68.183 40.45,67.85C41.583,67.183 42.433,67.067 43,67.5C43.2,67.667 43.15,69.083 42.85,71.75L42.05,78.85C41.983,80.317 42.233,84.883 42.8,92.55C43.467,101.517 44.217,108.467 45.05,113.4C46.65,122.9 47.067,130.283 46.3,135.55C45.767,139.217 44.267,143.1 41.8,147.2C40.633,148.8 40.15,149.967 40.35,150.7C40.517,151.567 41.717,151.15 43.95,149.45L42.85,150.85C41.817,151.983 40.517,152.983 38.95,153.85C36.417,155.217 34.317,155.917 32.65,155.95C35.417,155.083 36.467,154.25 35.8,153.45C35.133,152.683 33.717,152.467 31.55,152.8C24.983,153.867 19.95,151.3 16.45,145.1C12.583,138.233 11.267,127.867 12.5,114C13.233,105.4 15.517,96.667 19.35,87.8C23.083,80.533 24.967,76.633 25,76.1C25.4,72.667 25.933,69.767 26.6,67.4C27.367,64.6 28.167,63.233 29,63.3C29.833,63.4 30.55,64.7 31.15,67.2" style="fill:rgb(50,108,229);fill-rule:nonzero;"/>
        <path d="M103.75,87.5C106.183,87.3 109.283,88.433 113.05,90.9C117.65,93.867 120.917,95.633 122.85,96.2C125.25,96.9 128.667,97.267 133.1,97.3C136.667,97.333 138.85,97.717 139.65,98.45C140.517,99.25 140.983,100.9 141.05,103.4C141.15,106.167 141.667,108.233 142.6,109.6L146,112.25C148.333,113.85 150.2,115.317 151.6,116.65C156.633,121.45 158.9,127.083 158.4,133.55C157.933,140.083 153,145.733 143.6,150.5C133.533,155.6 121.333,157.967 107,157.6C91.333,157.233 79.367,155.283 71.1,151.75C61.167,147.483 56.4,140.9 56.8,132C56.933,129.233 57.467,126.1 58.4,122.6C59.267,119.533 59.65,117.383 59.55,116.15C59.483,115.083 58.983,113.617 58.05,111.75C57.35,110.383 57.283,109.1 57.85,107.9C58.85,105.833 62.167,104.467 67.8,103.8C75.167,102.967 80.117,101.967 82.65,100.8C84.65,99.867 88.417,97.283 93.95,93.05C98.55,89.483 101.817,87.633 103.75,87.5" style="fill:rgb(13,19,26);fill-rule:nonzero;"/>
        <path d="M104.65,89.7C106.883,89.567 109.55,90.7 112.65,93.1C116.383,95.933 119.2,97.633 121.1,98.2C123.267,98.833 126.6,99.25 131.1,99.45C134.733,99.583 136.933,100 137.7,100.7C138.5,101.433 138.967,103.033 139.1,105.5C139.233,108.2 139.733,110.167 140.6,111.4C141.4,112.533 144.217,114.533 149.05,117.4C153.483,121.033 155.683,125.85 155.65,131.85C155.617,136.283 153.067,140.45 148,144.35C144.067,147.417 139.05,150.033 132.95,152.2C130.45,153.1 126.617,153.883 121.45,154.55L103.25,155.45C96.383,155.183 89.4,154.217 82.3,152.55C75.933,151.083 71.483,149.583 68.95,148.05C65.75,146.117 63.45,144.05 62.05,141.85C60.25,139.083 59.45,135.567 59.65,131.3C59.75,128.867 60.183,125.883 60.95,122.35C61.583,119.317 61.85,117.217 61.75,116.05C61.683,115.15 61.283,113.883 60.55,112.25C60.017,111.117 60.017,110 60.55,108.9C61.183,107.567 64.433,106.483 70.3,105.65C77.367,104.683 82.067,103.6 84.4,102.4L94.8,95.2C99.7,91.633 102.983,89.8 104.65,89.7" style="fill:rgb(255,241,172);fill-rule:nonzero;"/>
        <path d="M95.35,98.7C96.15,99 96.967,99.55 97.8,100.35C98.633,101.183 99.217,102.05 99.55,102.95C99.917,103.85 99.867,104.4 99.4,104.6C98.933,104.767 98.417,104.467 97.85,103.7L96.45,101.8L94.2,100.45C93.233,99.85 93.017,99.3 93.55,98.8L95.35,98.7" style="fill:rgb(13,19,26);fill-rule:nonzero;"/>
        <path d="M113.15,101.65L112.25,103.05C111.85,103.617 111.4,103.8 110.9,103.6C110.567,103.5 110.483,103.133 110.65,102.5C110.783,101.867 111.083,101.25 111.55,100.65C111.983,100.05 112.467,99.617 113,99.35L114.15,99.25C114.583,99.517 114.6,99.917 114.2,100.45L113.15,101.65" style="fill:rgb(13,19,26);fill-rule:nonzero;"/>
        <path d="M66.5,141.75C69.333,144.317 75.183,146.55 84.05,148.45C93.25,150.417 102.733,151.367 112.5,151.3C123.667,151.233 132.917,149.783 140.25,146.95C148.883,143.617 154.05,138.633 155.75,132C155.717,136.433 153.167,140.6 148.1,144.5C144.133,147.567 139.117,150.183 133.05,152.35C130.517,153.25 126.667,154.033 121.5,154.7L103.3,155.6C96.433,155.333 89.45,154.367 82.35,152.7C75.983,151.233 71.533,149.733 69,148.2C65.767,146.233 63.45,144.183 62.05,142.05C60.217,139.283 59.383,135.767 59.55,131.5C59.683,128.733 59.967,126.483 60.4,124.75L61.4,120.35L60.95,128.3C61.317,134.2 63.167,138.683 66.5,141.75" style="fill:rgb(220,208,150);fill-rule:nonzero;"/>
        <path d="M114.6,84.55C111.2,81.317 109.783,77.817 110.35,74.05C110.917,70.283 113.317,67.383 117.55,65.35C121.783,63.283 126.617,62.667 132.05,63.5C137.45,64.333 141.867,66.367 145.3,69.6C148.7,72.867 150.117,76.367 149.55,80.1C148.983,83.867 146.583,86.783 142.35,88.85C138.117,90.917 133.283,91.517 127.85,90.65C122.45,89.817 118.033,87.783 114.6,84.55" style="fill:rgb(13,19,26);fill-rule:nonzero;"/>
        <path d="M116.3,83.65C113.233,80.883 111.967,77.867 112.5,74.6C113.033,71.333 115.2,68.8 119,67C122.833,65.2 127.183,64.65 132.05,65.35C136.917,66.05 140.883,67.8 143.95,70.6C147.017,73.4 148.267,76.417 147.7,79.65C147.167,82.917 145,85.45 141.2,87.25C137.367,89.05 133.017,89.6 128.15,88.9C123.317,88.2 119.367,86.45 116.3,83.65" style="fill:white;fill-rule:nonzero;"/>
        <path d="M125.55,78.25C125.017,78.283 124.55,78.117 124.15,77.75C123.75,77.383 123.533,76.917 123.5,76.35C123.467,75.817 123.633,75.35 124,74.95C124.367,74.55 124.833,74.333 125.4,74.3C125.933,74.267 126.4,74.433 126.8,74.8C127.2,75.167 127.417,75.633 127.45,76.2C127.483,76.733 127.317,77.2 126.95,77.6C126.583,78 126.117,78.217 125.55,78.25" style="fill:rgb(13,19,26);fill-rule:nonzero;"/>
        <path d="M88.25,87.5C84.383,91.133 79.4,93.383 73.3,94.25C67.233,95.117 61.833,94.383 57.1,92.05C52.367,89.683 49.7,86.383 49.1,82.15C48.5,77.917 50.133,74 54,70.4C57.867,66.8 62.833,64.567 68.9,63.7C74.967,62.833 80.367,63.583 85.1,65.95C89.833,68.283 92.517,71.567 93.15,75.8C93.75,80 92.117,83.9 88.25,87.5" style="fill:rgb(13,19,26);fill-rule:nonzero;"/>
        <path d="M86.6,86.45C83.133,89.583 78.683,91.533 73.25,92.3C67.817,93.067 62.983,92.417 58.75,90.35C54.55,88.317 52.167,85.467 51.6,81.8C51.067,78.133 52.517,74.75 55.95,71.65C59.417,68.517 63.867,66.567 69.3,65.8C74.733,65.033 79.567,65.667 83.8,67.7C88.033,69.767 90.417,72.633 90.95,76.3C91.517,79.933 90.067,83.317 86.6,86.45" style="fill:white;fill-rule:nonzero;"/>
        <path d="M73.7,80.25C73.167,80.317 72.683,80.167 72.25,79.8C71.85,79.433 71.617,78.983 71.55,78.45C71.517,77.917 71.667,77.433 72,77C72.367,76.6 72.817,76.367 73.35,76.3C73.917,76.267 74.4,76.417 74.8,76.75C75.233,77.117 75.467,77.567 75.5,78.1C75.567,78.667 75.417,79.15 75.05,79.55C74.717,79.983 74.267,80.217 73.7,80.25" style="fill:rgb(13,19,26);fill-rule:nonzero;"/>
    </g>
</svg>
